<?xml version="1.0" standalone="no"?>
<!DOCTYPE svg PUBLIC "-//W3C//DTD SVG 20010904//EN"
 "http://www.w3.org/TR/2001/REC-SVG-20010904/DTD/svg10.dtd">
<svg version="1.0" xmlns="http://www.w3.org/2000/svg"
 width="60" height="60" viewBox="0 0 600.000000 600.000000"
 preserveAspectRatio="xMidYMid meet">

<g transform="translate(0.000000,600.000000) scale(0.100000,-0.100000)"
fill="#000000" stroke="none">
<path d="M2772 5600 c-423 -44 -845 -223 -1198 -506 -118 -95 -319 -303 -415
-430 -372 -494 -557 -1087 -536 -1724 10 -289 51 -520 138 -782 278 -837 965
-1478 1770 -1652 145 -32 360 -56 487 -56 97 0 299 21 402 40 475 92 892 318
1236 671 200 207 345 411 469 664 504 1030 309 2298 -474 3084 -368 369 -794
593 -1291 676 -111 19 -464 28 -588 15z m548 -136 c582 -88 1102 -406 1469
-899 260 -348 418 -747 482 -1215 17 -124 18 -517 1 -635 -75 -517 -247 -925
-551 -1303 -92 -114 -278 -296 -391 -382 -626 -477 -1440 -584 -2150 -282
-660 279 -1163 878 -1360 1617 -99 373 -110 823 -29 1210 218 1043 1063 1829
2049 1905 132 10 356 3 480 -16z"/>
<path d="M2737 4416 c-21 -8 -48 -22 -59 -33 -48 -43 -48 -37 -48 -785 0 -688
0 -703 21 -744 32 -67 77 -84 222 -84 l117 0 -2 828 -3 827 -105 2 c-69 2
-118 -2 -143 -11z m113 -827 l0 -709 -22 0 c-12 0 -30 7 -40 17 -17 15 -18 50
-18 693 0 526 3 680 13 692 12 16 46 28 60 21 4 -2 7 -323 7 -714z"/>
<path d="M3070 3600 l0 -832 129 4 c144 3 166 12 206 79 19 33 20 52 20 744 0
672 -1 712 -19 747 -32 66 -72 82 -213 86 l-123 4 0 -832z m192 703 c17 -15
18 -50 18 -705 l0 -688 -24 -12 c-59 -26 -56 -63 -56 696 0 382 3 701 6 710 8
21 33 20 56 -1z"/>
<path d="M3139 2341 l-24 -19 -3 -334 c-2 -183 0 -348 3 -365 4 -23 15 -38 35
-48 41 -21 64 -19 97 9 l28 24 3 314 c4 347 1 389 -31 418 -27 25 -78 26 -108
1z m71 -375 c0 -183 -3 -336 -7 -339 -3 -4 -12 -2 -20 4 -10 9 -13 76 -13 333
0 315 4 357 32 340 4 -3 8 -155 8 -338z"/>
<path d="M3430 2350 c-8 -5 -32 -7 -52 -3 l-38 6 0 -387 0 -386 30 0 30 0 2
358 c2 229 7 357 13 357 6 0 11 -128 13 -357 l2 -358 30 0 30 0 -2 376 c-3
364 -4 377 -23 390 -13 9 -25 10 -35 4z"/>
<path d="M3565 2335 l-25 -24 0 -340 c0 -228 4 -348 11 -364 12 -26 47 -47 80
-47 28 0 75 26 83 45 3 9 6 77 6 151 l0 135 -32 -3 -33 -3 -3 -132 c-2 -122
-4 -133 -21 -133 -10 0 -22 7 -25 16 -9 23 -7 277 2 291 4 6 30 13 57 15 l50
3 3 183 2 182 -24 25 c-35 35 -97 35 -131 0z m83 -193 c2 -154 2 -162 -17
-162 -28 0 -31 18 -31 161 0 128 9 174 33 166 8 -2 13 -52 15 -165z"/>
<path d="M3783 2334 c-25 -25 -25 -29 -20 -117 3 -51 15 -128 27 -172 62 -223
70 -262 70 -336 0 -72 -10 -102 -28 -84 -4 4 -9 46 -12 93 -5 85 -6 87 -30 87
-24 0 -25 -2 -28 -85 -4 -107 1 -126 38 -145 41 -21 67 -19 96 11 26 25 26 27
22 142 -4 99 -11 140 -47 265 -43 155 -58 247 -47 292 13 52 31 20 36 -66 5
-83 5 -84 33 -87 l27 -3 0 95 c0 85 -2 97 -22 116 -31 29 -83 26 -115 -6z"/>
<path d="M2135 2339 c-3 -8 -4 -181 -3 -384 l3 -370 56 -3 c52 -3 59 0 78 24
21 27 22 33 19 365 -3 388 1 369 -92 377 -41 3 -57 1 -61 -9z m85 -373 c0
-200 -4 -327 -10 -331 -9 -6 -20 642 -11 651 18 17 21 -35 21 -320z"/>
<path d="M2357 2344 c-4 -4 -7 -178 -7 -386 l0 -378 30 0 30 0 -2 383 c-3 376
-3 382 -23 385 -12 2 -24 0 -28 -4z"/>
<path d="M2475 2326 c-3 -11 -4 -183 -3 -381 l3 -360 30 0 30 0 3 358 c1 223
6 357 12 357 6 0 11 -134 12 -357 l3 -358 30 0 30 0 3 357 c1 205 -2 367 -7
381 -9 23 -15 25 -75 25 -59 0 -67 -3 -71 -22z"/>
<path d="M2690 1965 l0 -385 59 0 c95 0 91 -16 91 386 l0 343 -26 20 c-19 15
-41 21 -75 21 l-49 0 0 -385z m88 -2 c-2 -210 -7 -328 -13 -328 -6 0 -11 118
-13 328 -2 288 0 327 13 327 13 0 15 -39 13 -327z"/>
<path d="M2905 2328 c-3 -13 -4 -185 -3 -383 l3 -360 30 0 30 0 3 178 c2 136
5 178 15 174 9 -2 13 -53 17 -178 l5 -174 34 -3 c28 -3 33 -1 27 13 -3 9 -6
91 -6 181 0 152 -2 166 -20 184 l-21 21 21 26 c18 23 20 40 20 160 0 129 -1
135 -25 158 -19 20 -34 25 -74 25 -44 0 -51 -3 -56 -22z m93 -159 c3 -119 -2
-159 -18 -159 -6 0 -10 55 -10 141 0 108 3 140 13 137 8 -3 13 -39 15 -119z"/>
</g>
</svg>
