<?xml version="1.0" standalone="no"?>
<!DOCTYPE svg PUBLIC "-//W3C//DTD SVG 20010904//EN"
 "http://www.w3.org/TR/2001/REC-SVG-20010904/DTD/svg10.dtd">
<svg version="1.0" xmlns="http://www.w3.org/2000/svg"
 width="100" height="100" viewBox="0 0 600.000000 600.000000"
 preserveAspectRatio="xMidYMid meet">

<g transform="translate(0.000000,600.000000) scale(0.100000,-0.100000)"
fill="#000000" stroke="none">
<path d="M2390 5960 c-8 -4 -58 -18 -110 -30 -247 -59 -564 -185 -759 -302
-34 -21 -65 -38 -67 -38 -3 0 -53 -32 -112 -72 -509 -341 -902 -826 -1119
-1383 -62 -158 -75 -195 -106 -316 -131 -494 -136 -969 -17 -1474 24 -98 85
-286 129 -399 166 -414 478 -849 811 -1129 47 -40 87 -74 90 -77 5 -5 82 -62
170 -126 30 -22 77 -53 104 -69 28 -17 70 -42 95 -57 25 -16 107 -58 181 -94
130 -63 158 -76 208 -95 12 -5 32 -13 45 -18 37 -16 198 -69 262 -86 143 -40
290 -67 498 -95 101 -13 513 -13 614 0 167 22 261 38 403 70 230 52 542 176
775 311 610 350 1090 925 1321 1583 56 161 110 377 133 531 27 181 31 241 31
455 0 214 -4 277 -31 455 -18 120 -45 243 -89 400 -54 195 -184 486 -312 696
-52 85 -194 287 -218 309 -3 3 -29 34 -59 70 -70 84 -237 251 -321 321 -36 30
-67 56 -70 59 -3 3 -52 41 -109 84 -292 217 -686 402 -1041 486 -52 12 -103
26 -112 31 -22 11 -1198 11 -1218 -1z m1000 -85 c218 -33 481 -99 615 -154 11
-5 56 -23 100 -41 419 -173 830 -481 1123 -841 138 -172 329 -490 403 -674 60
-149 82 -210 109 -305 7 -25 16 -56 20 -70 8 -25 22 -81 39 -162 10 -47 25
-138 42 -263 15 -105 14 -529 0 -630 -22 -154 -34 -221 -53 -305 -160 -714
-589 -1338 -1204 -1751 -57 -38 -105 -69 -108 -69 -2 0 -33 -17 -67 -38 -290
-173 -692 -304 -1089 -353 -123 -15 -518 -15 -640 0 -680 85 -1261 368 -1727
842 -62 63 -142 150 -178 194 -66 79 -216 297 -268 386 -98 170 -211 438 -258
607 -5 17 -14 49 -20 70 -55 196 -99 517 -99 732 0 158 27 413 60 565 5 28 13
64 16 80 19 96 107 368 149 461 29 63 124 256 143 289 63 111 233 361 261 385
3 3 30 34 60 70 187 226 492 476 767 631 365 205 804 337 1204 363 122 8 499
-4 600 -19z"/>
<path d="M2530 4390 c-62 -13 -86 -27 -131 -77 -81 -91 -92 -170 -91 -678 0
-539 16 -643 106 -723 71 -62 89 -66 334 -70 l222 -4 0 781 0 781 -202 -1
c-112 -1 -219 -5 -238 -9z m238 -762 l-3 -603 -85 1 c-84 1 -84 1 -116 38 -22
26 -34 52 -38 84 -4 26 -9 238 -12 471 -7 514 -1 565 71 597 17 7 65 13 108
14 l77 0 -2 -602z"/>
<path d="M3056 4385 c-9 -25 -7 -1518 3 -1533 13 -22 443 -12 491 11 79 37
128 102 148 197 46 215 42 944 -7 1142 -18 74 -75 141 -150 175 -29 14 -78 18
-257 21 -199 3 -222 2 -228 -13z m392 -186 c62 -39 75 -172 70 -729 -3 -326
-5 -368 -21 -397 -26 -48 -63 -63 -157 -63 l-80 0 0 598 c0 329 3 602 8 606
11 12 156 0 180 -15z"/>
<path d="M1835 2438 c-3 -7 -4 -180 -3 -383 l3 -370 45 0 45 0 0 380 0 380
-43 3 c-28 2 -44 -1 -47 -10z"/>
<path d="M2012 2438 c-9 -9 -12 -106 -12 -374 0 -394 -1 -389 57 -382 l28 3 3
195 c1 107 6 198 11 203 4 4 18 -25 30 -65 36 -118 60 -200 72 -243 19 -72 32
-90 67 -93 64 -6 62 -16 62 383 0 399 2 389 -62 383 l-33 -3 -5 -215 c-3 -118
-8 -208 -12 -200 -4 8 -19 60 -34 115 -30 118 -60 230 -70 265 -4 14 -12 28
-18 32 -17 12 -71 9 -84 -4z"/>
<path d="M3229 2427 c-50 -33 -71 -85 -81 -201 -11 -117 -2 -372 14 -431 24
-83 77 -125 160 -125 46 0 113 32 128 61 33 61 40 116 40 333 0 226 -6 276
-43 329 -27 39 -68 57 -130 57 -39 0 -63 -6 -88 -23z m132 -86 c24 -19 24 -21
27 -259 4 -289 -1 -312 -67 -312 -67 0 -71 17 -71 290 0 184 3 237 15 260 23
44 58 52 96 21z"/>
<path d="M3555 2437 c-3 -6 -4 -179 -3 -382 l3 -370 40 0 40 0 5 195 c3 112 9
194 14 193 5 -1 18 -33 28 -70 23 -81 28 -100 64 -221 28 -98 39 -108 95 -100
l24 3 0 380 0 380 -40 0 -40 0 -3 -207 c-1 -125 -6 -208 -12 -208 -5 0 -13 12
-16 28 -4 15 -13 52 -21 82 -8 30 -28 107 -44 170 -16 63 -35 120 -41 127 -14
17 -87 17 -93 0z"/>
<path d="M4339 2437 c-60 -27 -89 -78 -89 -153 0 -85 41 -158 168 -294 36 -39
53 -78 59 -134 4 -42 1 -56 -17 -78 -43 -55 -110 -18 -110 61 l0 42 -47 -3
c-38 -2 -49 -7 -52 -22 -6 -34 21 -124 43 -144 49 -45 136 -54 202 -22 66 32
79 59 79 165 0 81 -3 95 -28 138 -16 26 -53 76 -84 110 -110 122 -138 192 -93
237 45 45 98 18 108 -55 l7 -50 43 -3 42 -3 0 53 c-1 104 -60 169 -154 167
-28 0 -63 -6 -77 -12z"/>
<path d="M1452 2064 l3 -379 111 0 c129 0 151 8 185 69 24 40 24 45 24 306 -1
225 -3 270 -17 301 -29 62 -57 73 -191 77 l-117 4 2 -378z m197 275 c16 -17
20 -42 26 -145 10 -162 2 -373 -13 -401 -11 -19 -21 -23 -62 -23 l-50 0 0 288
c0 159 3 292 7 295 15 15 73 6 92 -14z"/>
<path d="M2395 2429 c-3 -8 -4 -178 -3 -379 l3 -365 70 -3 c158 -7 224 22 242
105 14 66 10 523 -5 565 -23 66 -60 82 -189 87 -89 2 -114 0 -118 -10z m194
-88 c24 -24 35 -167 29 -385 -5 -179 -7 -186 -79 -186 l-49 0 0 288 c0 159 3
292 7 295 14 14 74 6 92 -12z"/>
<path d="M2776 2425 c-3 -9 -6 -175 -6 -370 0 -392 -2 -379 67 -373 l38 3 5
170 c5 163 6 170 26 173 11 2 25 -3 30 -10 10 -13 14 -29 54 -208 12 -52 25
-102 29 -110 5 -9 25 -16 50 -18 39 -3 41 -2 41 25 -1 15 -18 96 -40 178 -37
145 -38 151 -20 170 38 43 44 68 44 175 0 111 -10 145 -54 185 -19 17 -39 20
-140 23 -102 3 -118 1 -124 -13z m202 -87 c16 -16 16 -200 0 -216 -7 -7 -31
-12 -55 -12 l-43 0 0 113 c0 63 3 117 7 120 11 12 78 8 91 -5z"/>
<path d="M3936 2424 c-3 -8 -6 -174 -6 -369 0 -289 3 -355 14 -364 9 -8 57
-11 147 -9 l134 3 0 40 0 40 -90 5 -90 5 -3 117 -3 117 83 3 83 3 0 45 0 45
-83 3 -83 3 3 117 3 117 90 5 90 5 0 40 0 40 -141 3 c-123 2 -142 0 -148 -14z"/>
</g>
</svg>
